<svg width="82" height="88" viewBox="0 0 82 88" fill="none" xmlns="http://www.w3.org/2000/svg">
<path fill-rule="evenodd" clip-rule="evenodd" d="M72.6945 14.1849C74.9653 16.7822 79.9996 25.0003 79.4965 27.7945L67.9024 28.1439C66.3869 25.1427 64.3848 22.4459 61.9996 20.1503C59.3918 17.6403 56.326 15.6098 52.9375 14.1849C46.4497 11.4568 39.2028 11.1269 32.494 13.2544C25.7853 15.3819 20.0528 19.8278 16.3229 25.7961C14.3554 28.9444 13.0128 32.4079 12.3343 36H34.9513H38.9514H79.1736C79.3224 36 79.4736 36.028 79.5925 36.1175C79.7226 36.2154 79.8394 36.3443 79.944 36.501L79.9514 36.5C79.9668 36.5277 79.982 36.5559 79.9971 36.5844C80.1189 36.7859 80.2234 37.0275 80.3125 37.3034C82.2778 42.6639 80.6349 57.4645 76.0726 66.0227C71.2568 75.0563 63.2721 81.9912 53.6531 85.4944C44.0341 88.9976 33.4597 88.822 23.9624 85.0012C18.5287 82.8153 13.667 79.5244 9.65615 75.3877C6.65659 72.294 1.5 63.7044 1.5 58.5L12.8545 58.5635C16.0769 65.1243 21.6106 71.2626 28.3919 73.9907C35.1732 76.7188 42.7235 76.8442 49.5917 74.3428C56.4598 71.8414 62.1611 66.8898 65.5997 60.4396C67.2402 57.3623 68.3631 53.729 68.8987 50H39.1744C39.1106 50.0145 39.0445 50.023 38.9767 50.0247L1.42521 50.9753C0.883299 50.9891 0.42815 50.5692 0.404717 50.0277C0.375515 49.3528 0.349206 48.5636 0.340939 47.6972C-0.875309 38.1553 1.17757 27.6366 6.25846 19.5064C11.4823 11.1476 19.5107 4.92104 28.9065 1.94147C38.3022 -1.03811 48.4517 -0.576126 57.5379 3.2447C63.3982 5.70898 68.5693 9.46668 72.6945 14.1849Z" fill="#0033CC"/>
<path d="M14.9506 41.2646C14.9137 40.8922 14.7552 40.6029 14.4751 40.3967C14.1951 40.1905 13.815 40.0874 13.3349 40.0874C13.0086 40.0874 12.7332 40.1336 12.5085 40.2259C12.2839 40.3151 12.1115 40.4398 11.9915 40.5998C11.8745 40.7599 11.8161 40.9414 11.8161 41.1446C11.8099 41.3138 11.8453 41.4616 11.9222 41.5877C12.0022 41.7139 12.1115 41.8232 12.25 41.9155C12.3885 42.0048 12.5485 42.0832 12.7301 42.151C12.9117 42.2156 13.1056 42.271 13.3118 42.3171L14.1612 42.5203C14.5736 42.6126 14.9522 42.7357 15.2969 42.8896C15.6416 43.0435 15.9401 43.2327 16.1925 43.4574C16.4448 43.6821 16.6403 43.9468 16.7788 44.2515C16.9203 44.5561 16.9927 44.9055 16.9957 45.2994C16.9927 45.878 16.8449 46.3796 16.5526 46.8044C16.2633 47.226 15.8447 47.5538 15.2969 47.7877C14.7521 48.0185 14.0951 48.1339 13.3256 48.1339C12.5624 48.1339 11.8976 48.017 11.3313 47.7831C10.7681 47.5492 10.328 47.2029 10.011 46.7443C9.69709 46.2827 9.53243 45.7118 9.51705 45.0316H11.4513C11.4729 45.3486 11.5637 45.6133 11.7237 45.8257C11.8868 46.0349 12.1038 46.1934 12.3746 46.3012C12.6486 46.4058 12.9579 46.4581 13.3026 46.4581C13.6411 46.4581 13.935 46.4089 14.1843 46.3104C14.4367 46.2119 14.6321 46.075 14.7706 45.8995C14.9091 45.7241 14.9783 45.5225 14.9783 45.2948C14.9783 45.0824 14.9152 44.9039 14.7891 44.7593C14.666 44.6146 14.4844 44.4915 14.2443 44.3899C14.0073 44.2884 13.7165 44.1961 13.3718 44.113L12.3423 43.8544C11.5452 43.6605 10.9158 43.3574 10.4542 42.945C9.99254 42.5326 9.76326 41.9771 9.76634 41.2784C9.76326 40.706 9.9156 40.2059 10.2234 39.7781C10.5342 39.3503 10.9605 39.0164 11.5021 38.7763C12.0438 38.5363 12.6593 38.4162 13.3487 38.4162C14.0504 38.4162 14.6629 38.5363 15.1861 38.7763C15.7124 39.0164 16.1217 39.3503 16.4141 39.7781C16.7064 40.2059 16.8572 40.7014 16.8665 41.2646H14.9506ZM22.6141 48H20.472L23.7359 38.5455H26.3119L29.5711 48H27.4291L25.0608 40.706H24.987L22.6141 48ZM22.4802 44.2838H27.5399V45.8441H22.4802V44.2838ZM34.0965 38.5455L36.3817 45.7287H36.4694L38.7592 38.5455H40.9751L37.7158 48H35.1398L31.876 38.5455H34.0965ZM45.3458 48H43.2038L46.4676 38.5455H49.0436L52.3028 48H50.1608L47.7925 40.706H47.7187L45.3458 48ZM45.2119 44.2838H50.2716V45.8441H45.2119V44.2838ZM64.2088 38.5455V48H62.4823L58.369 42.0494H58.2997V48H56.3008V38.5455H58.0551L62.136 44.4915H62.2191V38.5455H64.2088ZM70.7193 38.5455V48H68.7204V38.5455H70.7193Z" fill="white"/>
<path d="M24 66C34 61.7941 51.5 61.4118 59 65.6177L52.2143 60.2647L54.3571 57.9706L51.8922 57.7067C51.3011 57.6434 50.7857 58.1066 50.7857 58.701V60.2647C44.3254 58.7205 40.6364 58.7314 34 59.5L35.4286 54.9118H36.307C36.8081 54.9118 37.2143 54.5056 37.2143 54.0045C37.2143 53.467 36.7497 53.0474 36.215 53.1019L29.7143 53.7647L32.2143 55.2941L30.7857 59.5L24 66Z" fill="#0033CC"/>
<path d="M60 31C49.4286 26.7941 30.9286 26.4118 23 30.6177L30.1735 25.2647L27.9082 22.9706L30.5829 22.6997C31.172 22.6401 31.6837 23.1025 31.6837 23.6946V25.2647C38.5132 23.7205 42.413 23.7314 49.4286 24.5L47.9184 19.9118H46.9405C46.438 19.9118 46.0306 19.5044 46.0306 19.0019C46.0306 18.4648 46.4933 18.0446 47.0279 18.0962L53.9592 18.7647L51.3163 20.2941L52.8265 24.5L60 31Z" fill="#0033CC"/>
</svg>
