<svg width="49" height="49" viewBox="0 0 49 49" fill="none" xmlns="http://www.w3.org/2000/svg">
<path d="M24.4999 4.08337C24.9999 4.08344 25.4826 4.26703 25.8563 4.59933C26.23 4.93163 26.4687 5.38953 26.5272 5.88617L26.5415 6.12504V6.23733C30.5889 6.69109 34.371 8.47589 37.2943 11.3116C40.2176 14.1473 42.1165 17.8734 42.6931 21.9051L42.7626 22.4584H42.8749C43.3952 22.459 43.8958 22.6582 44.2741 23.0154C44.6525 23.3727 44.8802 23.8609 44.9107 24.3804C44.9412 24.8999 44.7722 25.4114 44.4382 25.8104C44.1042 26.2095 43.6305 26.466 43.1137 26.5274L42.8749 26.5417H42.7626C42.3088 30.589 40.524 34.3712 37.6883 37.2945C34.8526 40.2177 31.1265 42.1167 27.0948 42.6933L26.5415 42.7627V42.875C26.5409 43.3954 26.3417 43.8959 25.9845 44.2743C25.6272 44.6527 25.139 44.8804 24.6195 44.9109C24.1 44.9414 23.5885 44.7724 23.1894 44.4384C22.7904 44.1044 22.5339 43.6306 22.4725 43.1139L22.4582 42.875V42.7627C18.4108 42.309 14.6287 40.5242 11.7054 37.6885C8.78215 34.8528 6.88318 31.1267 6.30656 27.095L6.23715 26.5417H6.12485C5.60447 26.5411 5.10396 26.3419 4.72556 25.9846C4.34717 25.6274 4.11946 25.1392 4.08896 24.6197C4.05846 24.1002 4.22748 23.5887 4.56148 23.1896C4.89547 22.7906 5.36924 22.5341 5.88598 22.4727L6.12485 22.4584H6.23715C6.6909 18.411 8.4757 14.6289 11.3114 11.7056C14.1471 8.78234 17.8732 6.88336 21.9049 6.30675L22.4582 6.23733V6.12504C22.4582 5.58356 22.6733 5.06425 23.0562 4.68136C23.4391 4.29848 23.9584 4.08337 24.4999 4.08337ZM24.4999 14.2917C21.7924 14.2917 19.1959 15.3672 17.2815 17.2817C15.367 19.1961 14.2915 21.7926 14.2915 24.5C14.2915 27.2075 15.367 29.804 17.2815 31.7184C19.1959 33.6329 21.7924 34.7084 24.4999 34.7084C27.2073 34.7084 29.8038 33.6329 31.7182 31.7184C33.6327 29.804 34.7082 27.2075 34.7082 24.5C34.7082 21.7926 33.6327 19.1961 31.7182 17.2817C29.8038 15.3672 27.2073 14.2917 24.4999 14.2917ZM24.4999 18.375C26.1243 18.375 27.6822 19.0203 28.8309 20.169C29.9795 21.3177 30.6249 22.8756 30.6249 24.5C30.6249 26.1245 29.9795 27.6824 28.8309 28.8311C27.6822 29.9797 26.1243 30.625 24.4999 30.625C22.8754 30.625 21.3175 29.9797 20.1688 28.8311C19.0202 27.6824 18.3749 26.1245 18.3749 24.5C18.3749 22.8756 19.0202 21.3177 20.1688 20.169C21.3175 19.0203 22.8754 18.375 24.4999 18.375Z" fill="#0033CC"/>
</svg>
