<svg width="49" height="49" viewBox="0 0 49 49" fill="none" xmlns="http://www.w3.org/2000/svg">
<path d="M24.5003 18.375C22.8759 18.375 21.318 19.0203 20.1693 20.169C19.0206 21.3176 18.3753 22.8755 18.3753 24.5C18.3753 26.1245 19.0206 27.6824 20.1693 28.831C21.318 29.9797 22.8759 30.625 24.5003 30.625C26.1248 30.625 27.6827 29.9797 28.8314 28.831C29.98 27.6824 30.6253 26.1245 30.6253 24.5C30.6253 22.8755 29.98 21.3176 28.8314 20.169C27.6827 19.0203 26.1248 18.375 24.5003 18.375ZM24.5003 34.7083C21.7929 34.7083 19.1964 33.6328 17.2819 31.7184C15.3675 29.8039 14.292 27.2074 14.292 24.5C14.292 21.7926 15.3675 19.1961 17.2819 17.2816C19.1964 15.3672 21.7929 14.2917 24.5003 14.2917C27.2077 14.2917 29.8043 15.3672 31.7187 17.2816C33.6331 19.1961 34.7087 21.7926 34.7087 24.5C34.7087 27.2074 33.6331 29.8039 31.7187 31.7184C29.8043 33.6328 27.2077 34.7083 24.5003 34.7083ZM24.5003 9.1875C14.292 9.1875 5.57408 15.5371 2.04199 24.5C5.57408 33.4629 14.292 39.8125 24.5003 39.8125C34.7087 39.8125 43.4266 33.4629 46.9587 24.5C43.4266 15.5371 34.7087 9.1875 24.5003 9.1875Z" fill="#0033CC"/>
</svg>
